<?xml version="1.0" encoding="UTF-8"?>
<svg version="1.1" viewBox="0 0 1000 1000" width="1000" height="1000" xmlns="http://www.w3.org/2000/svg">
<path transform="translate(129,211)" d="m0 0h164l8 16 16 36 19 41 16 36 19 41 13 29 1 1 16-35 16-36 19-41 16-36 19-41 5-11h165l-4 10-10 20 8 18 23 47 11 23 16 33 12 25 16 33 12 25 16 33 12 25 16 33 12 25 16 33 12 25 16 33 12 25 16 33 12 25 2 4v3h-166l-17-37-16-36-19-41-16-36-19-41-3-7-8 16-16 35-16 36-19 41-16 36-15 33-1 1h-137l-4-10-8-16-16-34-21-43-11-23-16-33-12-25-16-33-12-25-16-33-12-25-16-33-12-25-16-33-12-25-16-33-12-25-16-33-10-21z"/>
<path transform="translate(626,242)" d="m0 0 3 4 12 25 16 33 12 25 16 33 12 25 16 33 12 25 16 33 12 25 16 33 12 25 16 33 12 25 16 33 12 25 16 33 12 25 2 4v3h-166l-17-37-16-36-19-41-16-36-19-41-3-7-8 16-16 35-16 36-19 41-16 36-15 33-1 1h-135l5-12 24-49 11-23 16-33 12-25 16-33 12-25 16-33 12-25 16-33 12-25 16-33 12-25 16-33 12-25 16-33 12-25z" fill="#FEBC01"/>
</svg>
