<?xml version="1.0" encoding="UTF-8"?>
<svg version="1.1" xmlns="http://www.w3.org/2000/svg" width="500" height="500">
<path d="M0 0 C3.60540157 0.01142177 7.21068686 -0.00620212 10.81606448 -0.01989961 C17.859362 -0.04202171 24.90239168 -0.03738064 31.94569928 -0.0228364 C37.67417162 -0.0115013 43.40256939 -0.01003162 49.13104975 -0.01545548 C50.35836148 -0.01660473 50.35836148 -0.01660473 51.61046739 -0.0177772 C53.27311316 -0.01937597 54.93575891 -0.02099704 56.59840464 -0.02264015 C72.15377159 -0.0368651 87.70899072 -0.02055573 103.26433342 0.00636168 C116.58653182 0.02870172 129.90851233 0.02481301 143.23070681 0.00176787 C158.73550856 -0.02504059 174.24018111 -0.03549651 189.74500281 -0.02017081 C191.40090678 -0.01857821 193.05681078 -0.01700635 194.71271479 -0.01545548 C195.52726076 -0.01468411 196.34180672 -0.01391273 197.18103589 -0.01311798 C202.89740353 -0.0088164 208.6136886 -0.01605401 214.33004344 -0.02785325 C221.30382695 -0.04193286 228.27732939 -0.03796424 235.25108106 -0.01144953 C238.80336927 0.00161523 242.35519029 0.00696835 245.90747416 -0.00969529 C269.07013658 -0.10921562 285.5285223 2.84142733 303.00731814 19.21221709 C315.9889829 32.71228444 324.00147221 50.32074028 323.88309634 69.05427337 C323.89563133 70.83814032 323.89563133 70.83814032 323.90841955 72.65804499 C323.92728002 75.92369164 323.92852451 79.18876611 323.9218502 82.45444191 C323.91895538 85.99046958 323.93907702 89.52638242 323.95600283 93.06236053 C323.98525563 99.97734761 323.99265529 106.89218859 323.99142732 113.8072312 C323.99059232 119.43466091 323.99648479 125.06204476 324.00705302 130.68946433 C324.03970058 148.42022463 324.04872759 166.15084356 324.03996328 183.88162952 C324.03398792 197.82940814 324.06434775 211.77683459 324.111586 225.72452546 C324.15982805 240.08183345 324.18174657 254.43897235 324.17627519 268.79636306 C324.17370946 276.84248667 324.18148712 284.88827324 324.21734583 292.93432593 C324.24764916 299.78732355 324.25305991 306.63980886 324.22753682 313.49283458 C324.21521818 316.98110321 324.21356948 320.46841229 324.24324572 323.95659804 C324.41280585 348.57813633 320.04501852 367.88990871 302.79638064 386.30596709 C289.75716995 398.84447209 274.0280204 406.12483459 256.02915347 406.06149077 C254.20307908 406.07274413 254.20307908 406.07274413 252.3401143 406.08422482 C248.98211321 406.10179555 245.62458843 406.10605835 242.26657462 406.10443354 C238.63649563 406.10588435 235.00649639 406.12449315 231.37645876 406.14068389 C223.44848132 406.17272427 215.52056915 406.182611 207.59253538 406.18832612 C202.63557335 406.19208495 197.67862856 406.20089988 192.72167552 406.21082473 C178.97795764 406.23775512 165.23425638 406.26027113 151.49050963 406.2627027 C150.17279761 406.26293606 150.17279761 406.26293606 148.82846514 406.26317414 C147.04783821 406.26346518 145.26721129 406.26375055 143.48658436 406.26403029 C142.60276488 406.26417315 141.71894541 406.264316 140.80834353 406.26446319 C139.92343619 406.26460285 139.03852886 406.26474252 138.12680615 406.26488642 C123.79853074 406.26801954 109.47055807 406.30459066 95.14238255 406.35609944 C80.40664089 406.40864798 65.67104842 406.43481464 50.93521088 406.43425381 C42.67171184 406.43450575 34.40856067 406.44559817 26.14514887 406.48542953 C19.10682683 406.51918472 12.06898809 406.52841038 5.03061008 406.50667258 C1.44551933 406.49629618 -2.13862697 406.49679478 -5.7236141 406.52843642 C-26.9429917 406.70435005 -40.78291775 404.29553699 -57.64502561 390.65362334 C-59.19190061 389.53987334 -59.19190061 389.53987334 -60.77002561 388.40362334 C-72.59379395 377.09393189 -81.47544051 361.30695216 -82.02254903 344.72090602 C-82.0388502 342.54692286 -82.03909577 340.37277879 -82.02597654 338.1987741 C-82.03065651 336.99178314 -82.03533648 335.78479218 -82.04015827 334.54122573 C-82.04999169 331.22173784 -82.04653757 327.90276561 -82.03719962 324.58331001 C-82.03037414 320.99157754 -82.04090753 317.3998881 -82.04913938 313.80816436 C-82.0624414 306.78443186 -82.05961491 299.76079584 -82.05090146 292.73705965 C-82.04411191 287.02658737 -82.04321367 281.31614203 -82.04647291 275.60566688 C-82.04693261 274.79131293 -82.04739231 273.97695898 -82.04786593 273.13792764 C-82.04882516 271.48332682 -82.0497978 269.82872601 -82.05078371 268.1741252 C-82.05932712 252.6790223 -82.04951968 237.18397275 -82.03338261 221.6888786 C-82.01997785 208.4063482 -82.02231085 195.12389647 -82.03613889 181.84136748 C-82.05220891 166.39818395 -82.0585059 150.9550471 -82.0493021 135.51185638 C-82.0483465 133.86382561 -82.04740339 132.21579483 -82.04647291 130.56776404 C-82.04601008 129.7570035 -82.04554725 128.94624296 -82.0450704 128.11091391 C-82.04248497 122.40976559 -82.04684181 116.70864699 -82.05391157 111.00750327 C-82.06234247 104.05626564 -82.06001299 97.10512959 -82.04406933 90.15390354 C-82.03620833 86.61034014 -82.03305774 83.06694584 -82.04301679 79.52338386 C-82.0536659 75.67599082 -82.04091364 71.82887209 -82.02597654 67.98148894 C-82.0326687 66.87029093 -82.03936087 65.75909291 -82.04625583 64.61422223 C-81.91423981 47.05208801 -73.40748073 31.66385651 -61.33643186 19.28643584 C-43.03388834 1.89169848 -24.0850692 -0.11308834 0 0 Z " fill="#009A2C" transform="translate(130.64502561092377,47.34637665748596)"/>
<path d="M0 0 C3.60540157 0.01142177 7.21068686 -0.00620212 10.81606448 -0.01989961 C17.859362 -0.04202171 24.90239168 -0.03738064 31.94569928 -0.0228364 C37.67417162 -0.0115013 43.40256939 -0.01003162 49.13104975 -0.01545548 C50.35836148 -0.01660473 50.35836148 -0.01660473 51.61046739 -0.0177772 C53.27311316 -0.01937597 54.93575891 -0.02099704 56.59840464 -0.02264015 C72.15377159 -0.0368651 87.70899072 -0.02055573 103.26433342 0.00636168 C116.58653182 0.02870172 129.90851233 0.02481301 143.23070681 0.00176787 C158.73550856 -0.02504059 174.24018111 -0.03549651 189.74500281 -0.02017081 C191.40090678 -0.01857821 193.05681078 -0.01700635 194.71271479 -0.01545548 C195.52726076 -0.01468411 196.34180672 -0.01391273 197.18103589 -0.01311798 C202.89740353 -0.0088164 208.6136886 -0.01605401 214.33004344 -0.02785325 C221.30382695 -0.04193286 228.27732939 -0.03796424 235.25108106 -0.01144953 C238.80336927 0.00161523 242.35519029 0.00696835 245.90747416 -0.00969529 C269.07013658 -0.10921562 285.5285223 2.84142733 303.00731814 19.21221709 C346.97098246 64.93150195 323.35497439 158.26715829 323.35497439 202.65362334 C189.70497439 202.65362334 56.05497439 202.65362334 -81.64502561 202.65362334 C-81.64502561 40.11047613 -81.64502561 40.11047613 -61.33643186 19.28643584 C-43.03388834 1.89169848 -24.0850692 -0.11308834 0 0 Z " fill="#010101" transform="translate(130.64502561092377,47.34637665748596)"/>
<path d="M0 0 C39.11111111 0 39.11111111 0 48.3125 6.25 C57.44709623 15.5970287 57.37384504 28.89072787 57.3125 41.25 C57.30404053 43.03071899 57.30404053 43.03071899 57.29541016 44.84741211 C57.11664605 57.79011056 56.17786536 69.44311927 48 80 C38 86 38 86 0 86 C0 57.62 0 29.24 0 0 Z " fill="#FBFDFC" transform="translate(160,291)"/>
<path d="M0 0 C40.88888889 0 40.88888889 0 48.875 6.25 C52.9611544 11.53796452 54.61322841 17.01372841 54.34765625 23.69921875 C53.49113851 29.36763387 51.25479411 34.24045659 46.9375 38.0625 C44 40 44 40 41 40 C41 40.66 41 41.32 41 42 C41.845625 42.04125 42.69125 42.0825 43.5625 42.125 C48.17150337 43.29820086 50.85390843 45.48866297 54 49 C57.47816883 55.35143874 56.56043587 63.89212836 55.3125 70.8125 C52.58272274 77.44195906 49.55078208 81.27390123 42.96484375 84.2734375 C29.52135051 89.24459007 14.33317371 86 0 86 C0 57.62 0 29.24 0 0 Z " fill="#FCFDFC" transform="translate(228,291)"/>
<path d="M0 0 C4.99917192 4.03421548 7.64734666 9.71430305 8.3203125 15.984375 C8.66977959 25.90924042 6.80967672 33.08701585 0.25 40.625 C-2.7774417 43.81444527 -5.90369419 46.89347453 -9.0390625 49.9765625 C-9.75223633 50.68087402 -10.46541016 51.38518555 -11.20019531 52.11083984 C-12.62587644 53.5131544 -14.05988262 54.90706614 -15.50292969 56.29150391 C-16.16969727 56.94296387 -16.83646484 57.59442383 -17.5234375 58.265625 C-18.12075684 58.84086914 -18.71807617 59.41611328 -19.33349609 60.00878906 C-21.52402952 62.47030581 -21.52402952 62.47030581 -24 68 C-13.44 68 -2.88 68 8 68 C8 72.29 8 76.58 8 81 C-9.16 81 -26.32 81 -44 81 C-44 63.73609562 -36.89262353 53.94323044 -25 42 C-22.91941155 40.10289107 -20.80528267 38.26705309 -18.65234375 36.453125 C-14.24938094 32.58101586 -11.20103377 28.53361679 -10.734375 22.65234375 C-10.74210937 20.81349609 -10.74210937 20.81349609 -10.75 18.9375 C-10.74484375 17.70902344 -10.7396875 16.48054688 -10.734375 15.21484375 C-10.75125736 11.84845333 -10.75125736 11.84845333 -13 9 C-15.04743518 8.26917046 -15.04743518 8.26917046 -17.375 8.0625 C-18.14585937 7.95035156 -18.91671875 7.83820313 -19.7109375 7.72265625 C-22.14112275 7.82896907 -22.14112275 7.82896907 -24.2109375 9.60546875 C-26.39482402 12.5284435 -26.78054307 14.65083024 -27.25 18.25 C-27.4975 20.1475 -27.745 22.045 -28 24 C-33.61 24 -39.22 24 -45 24 C-45.52528382 15.80557239 -45.07296773 9.70147239 -40 3 C-29.37223399 -6.45544462 -12.24705968 -6.89163811 0 0 Z " fill="#FAFDFB" transform="translate(335,296)"/>
<path d="M0 0 C13 0 13 0 18 3 C20.99865693 8.99731387 22.17046867 14.00603981 22.23828125 20.6328125 C22.25038887 21.75972 22.25038887 21.75972 22.26274109 22.90939331 C22.27656661 24.50142116 22.28729562 26.09347845 22.29516602 27.68554688 C22.30664631 29.30119614 22.32703523 30.91680867 22.35668945 32.53222656 C22.68180506 50.25193542 22.68180506 50.25193542 18 57 C12.56282117 62.27241584 7.95652554 61 0 61 C0 40.87 0 20.74 0 0 Z " fill="#069B30" transform="translate(177,304)"/>
<path d="M0 0 C26.4 0 52.8 0 80 0 C78 8 78 8 77 9 C74.59651714 9.09496708 72.22189018 9.12558862 69.81811523 9.11352539 C68.6913588 9.11374443 68.6913588 9.11374443 67.5418396 9.1139679 C65.04739541 9.11326863 62.55302497 9.10547564 60.05859375 9.09765625 C58.33366436 9.09579212 56.60873443 9.09436819 54.88380432 9.09336853 C50.33487497 9.08954297 45.78597733 9.07971238 41.23706055 9.06866455 C36.59879994 9.05845124 31.96053423 9.05387108 27.32226562 9.04882812 C18.21482978 9.03809014 9.10741752 9.02101327 0 9 C0 6.03 0 3.06 0 0 Z " fill="#E7E7E7" transform="translate(179,200)"/>
<path d="M0 0 C13.53 0 27.06 0 41 0 C41.495 2.475 41.495 2.475 42 5 C42.30397705 4.1850708 42.6079541 3.3701416 42.92114258 2.53051758 C45 0 45 0 46.85971069 -0.44692993 C49.34020811 -0.58031539 51.77858454 -0.56098956 54.26171875 -0.48828125 C55.16751175 -0.48120651 56.07330475 -0.47413177 57.00654602 -0.46684265 C59.90103583 -0.43884228 62.7935945 -0.37609441 65.6875 -0.3125 C67.64906061 -0.28742438 69.61065154 -0.26460993 71.57226562 -0.24414062 C76.38225505 -0.18899716 81.19080009 -0.10268642 86 0 C86 2.64 86 5.28 86 8 C57.62 8 29.24 8 0 8 C0 5.36 0 2.72 0 0 Z " fill="#F4F4F4" transform="translate(280,155)"/>
<path d="M0 0 C25.74 0 51.48 0 78 0 C80 4 80 4 80 8 C53.6 8 27.2 8 0 8 C0 5.36 0 2.72 0 0 Z " fill="#F3F3F3" transform="translate(179,125)"/>
<path d="M0 0 C23.76 0 47.52 0 72 0 C65.80602675 6.19397325 59.22254598 8.15830371 50.51879883 8.45410156 C48.16478129 8.45347789 45.81069471 8.4314573 43.45703125 8.390625 C41.58261604 8.38213531 41.58261604 8.38213531 39.67033386 8.37347412 C36.3870762 8.35502214 33.10464155 8.31924271 29.82165527 8.2746582 C26.45607444 8.2333527 23.09037193 8.21538876 19.72460938 8.1953125 C13.14942444 8.15144163 6.57477934 8.08467792 0 8 C0 5.36 0 2.72 0 0 Z " fill="#FAFAFA" transform="translate(179,216)"/>
<path d="M0 0 C7.4067109 -0.09310178 14.8132935 -0.16396685 22.22047329 -0.20724869 C25.66078449 -0.22803277 29.10069235 -0.25617889 32.54077148 -0.30175781 C36.50499472 -0.35394646 40.46906048 -0.37302121 44.43359375 -0.390625 C45.65582138 -0.41127014 46.87804901 -0.43191528 48.13731384 -0.45318604 C55.14593226 -0.45501062 61.04527315 0.03986796 67 4 C68.32 5.32 69.64 6.64 71 8 C47.57 8 24.14 8 0 8 C0 5.36 0 2.72 0 0 Z " fill="#F8F8F8" transform="translate(179,109)"/>
<path d="M0 0 C14.19642857 -0.66964286 14.19642857 -0.66964286 17.8125 2.375 C21.70572711 7.04687253 21.52277916 11.08139305 21 17 C19.39875543 20.76292473 17.45444189 22.84097382 14 25 C11 26 11 26 0 26 C0 17.42 0 8.84 0 0 Z " fill="#0A9C32" transform="translate(245,339)"/>
<path d="M0 0 C20.46 0 40.92 0 62 0 C60.38208558 2.69652403 58.74434373 5.38348441 57 8 C54.59555054 8.36076355 54.59555054 8.36076355 51.54052734 8.34057617 C50.39949554 8.34034958 49.25846375 8.34012299 48.08285522 8.33988953 C46.22813095 8.31666374 46.22813095 8.31666374 44.3359375 8.29296875 C43.07359283 8.28872391 41.81124817 8.28447906 40.51065063 8.28010559 C37.15338649 8.26613137 33.79673068 8.23917302 30.43963623 8.20599365 C27.01449852 8.17531352 23.58929799 8.1616047 20.1640625 8.14648438 C13.4425395 8.11334641 6.72130489 8.06309539 0 8 C0 5.36 0 2.72 0 0 Z " fill="#FAFAFA" transform="translate(193,155)"/>
<path d="M0 0 C7.8650533 -0.17763436 15.72958867 -0.30013657 23.59619141 -0.38452148 C26.27227708 -0.41575195 28.94574292 -0.46743254 31.62158203 -0.52807617 C35.46941272 -0.61309137 39.31546334 -0.65271541 43.1640625 -0.68359375 C44.35802643 -0.71972275 45.55199036 -0.75585175 46.78213501 -0.79307556 C54.91989929 -0.79691472 54.91989929 -0.79691472 58.12762451 1.5697937 C62 5.98745194 62 5.98745194 62 8 C41.54 8 21.08 8 0 8 C0 5.36 0 2.72 0 0 Z " fill="#F8F8F8" transform="translate(193,170)"/>
<path d="M0 0 C16.5 0 33 0 50 0 C50 2.97 50 5.94 50 9 C33.5 9 17 9 0 9 C0 6.03 0 3.06 0 0 Z " fill="#E7E7E7" transform="translate(122,200)"/>
<path d="M0 0 C14.85 0 29.7 0 45 0 C45.99 2.97 46.98 5.94 48 9 C32.16 9 16.32 9 0 9 C0 6.03 0 3.06 0 0 Z " fill="#E4E4E4" transform="translate(265,124)"/>
<path d="M0 0 C16.5 0 33 0 50 0 C50 2.64 50 5.28 50 8 C33.5 8 17 8 0 8 C0 5.36 0 2.72 0 0 Z " fill="#FAFAFA" transform="translate(122,216)"/>
<path d="M0 0 C16.5 0 33 0 50 0 C50 2.64 50 5.28 50 8 C33.5 8 17 8 0 8 C0 5.36 0 2.72 0 0 Z " fill="#F4F4F4" transform="translate(122,125)"/>
<path d="M0 0 C16.5 0 33 0 50 0 C50 2.64 50 5.28 50 8 C33.5 8 17 8 0 8 C0 5.36 0 2.72 0 0 Z " fill="#F8F8F8" transform="translate(122,109)"/>
<path d="M0 0 C11 0 11 0 16 2 C18.80935023 4.85852923 19.43138755 6.97051744 19.4375 10.9375 C19.32450863 14.42482447 19.06225628 15.88932218 17.3125 19 C11.51659998 24.01267028 8.36045569 23 0 23 C0 15.41 0 7.82 0 0 Z " fill="#0B9D33" transform="translate(245,304)"/>
<path d="M0 0 C15.18 0 30.36 0 46 0 C46 2.64 46 5.28 46 8 C30.16 8 14.32 8 -2 8 C-1 2 -1 2 0 0 Z " fill="#F2F2F2" transform="translate(334,125)"/>
<path d="M0 0 C13.53 0 27.06 0 41 0 C41 2.64 41 5.28 41 8 C27.14 8 13.28 8 -1 8 C-0.67 5.36 -0.34 2.72 0 0 Z " fill="#F7F7F7" transform="translate(339,109)"/>
<path d="M0 0 C13.2 0 26.4 0 40 0 C40.495 3.96 40.495 3.96 41 8 C27.47 8 13.94 8 0 8 C0 5.36 0 2.72 0 0 Z " fill="#F7F7F7" transform="translate(266,109)"/>
<path d="M0 0 C11.88 0 23.76 0 36 0 C36 2.97 36 5.94 36 9 C24.12 9 12.24 9 0 9 C0 6.03 0 3.06 0 0 Z " fill="#E3E3E3" transform="translate(344,200)"/>
<path d="M0 0 C11.88 0 23.76 0 36 0 C36 2.97 36 5.94 36 9 C24.12 9 12.24 9 0 9 C0 6.03 0 3.06 0 0 Z " fill="#E3E3E3" transform="translate(265,200)"/>
<path d="M0 0 C12.21 0 24.42 0 37 0 C37 2.64 37 5.28 37 8 C24.46 8 11.92 8 -1 8 C-0.67 5.36 -0.34 2.72 0 0 Z " fill="#F9F9F9" transform="translate(329,140)"/>
<path d="M0 0 C11.88 0 23.76 0 36 0 C36.66 2.64 37.32 5.28 38 8 C25.46 8 12.92 8 0 8 C0 5.36 0 2.72 0 0 Z " fill="#F9F9F9" transform="translate(280,140)"/>
<path d="M0 0 C11.88 0 23.76 0 36 0 C36 2.64 36 5.28 36 8 C24.12 8 12.24 8 0 8 C0 5.36 0 2.72 0 0 Z " fill="#F7F7F7" transform="translate(344,216)"/>
<path d="M0 0 C11.55 0 23.1 0 35 0 C35 2.64 35 5.28 35 8 C23.45 8 11.9 8 0 8 C0 5.36 0 2.72 0 0 Z " fill="#FAFAFA" transform="translate(266,216)"/>
<path d="M0 0 C11.55 0 23.1 0 35 0 C34 6 34 6 33 8 C22.77 8 12.54 8 2 8 C1.34 5.36 0.68 2.72 0 0 Z " fill="#F7F7F7" transform="translate(305,170)"/>
<path d="M0 0 C8.25 0 16.5 0 25 0 C24.34 2.97 23.68 5.94 23 9 C16.4 9 9.8 9 3 9 C0 3 0 3 0 0 Z " fill="#E6E6E6" transform="translate(310,185)"/>
<path d="M0 0 C7.26 0 14.52 0 22 0 C23 2 23 2 23 9 C15.41 9 7.82 9 0 9 C0 6.03 0 3.06 0 0 Z " fill="#E6E6E6" transform="translate(237,185)"/>
<path d="M0 0 C7.26 0 14.52 0 22 0 C22 2.97 22 5.94 22 9 C14.74 9 7.48 9 0 9 C0 6.03 0 3.06 0 0 Z " fill="#DFDFDF" transform="translate(344,185)"/>
<path d="M0 0 C7.26 0 14.52 0 22 0 C22 2.97 22 5.94 22 9 C14.74 9 7.48 9 0 9 C0 6.03 0 3.06 0 0 Z " fill="#E0E0E0" transform="translate(279,185)"/>
<path d="M0 0 C7.26 0 14.52 0 22 0 C22 2.97 22 5.94 22 9 C14.74 9 7.48 9 0 9 C0 6.03 0 3.06 0 0 Z " fill="#E5E5E5" transform="translate(193,185)"/>
<path d="M0 0 C7.26 0 14.52 0 22 0 C22 2.97 22 5.94 22 9 C14.74 9 7.48 9 0 9 C0 6.03 0 3.06 0 0 Z " fill="#E2E2E2" transform="translate(136,185)"/>
<path d="M0 0 C7.59 0 15.18 0 23 0 C23 2.31 23 4.62 23 7 C22 8 22 8 19.86694336 8.11352539 C18.95050049 8.10828857 18.03405762 8.10305176 17.08984375 8.09765625 C16.10048828 8.09443359 15.11113281 8.09121094 14.09179688 8.08789062 C13.05087891 8.07951172 12.00996094 8.07113281 10.9375 8.0625 C9.89271484 8.05798828 8.84792969 8.05347656 7.77148438 8.04882812 C5.1809334 8.03699913 2.59049441 8.02051689 0 8 C0 5.36 0 2.72 0 0 Z " fill="#F7F7F7" transform="translate(236,140)"/>
<path d="M0 0 C7.26 0 14.52 0 22 0 C22 2.64 22 5.28 22 8 C14.74 8 7.48 8 0 8 C0 5.36 0 2.72 0 0 Z " fill="#F1F1F1" transform="translate(344,170)"/>
<path d="M0 0 C7.26 0 14.52 0 22 0 C22 2.64 22 5.28 22 8 C14.74 8 7.48 8 0 8 C0 5.36 0 2.72 0 0 Z " fill="#F4F4F4" transform="translate(136,170)"/>
<path d="M0 0 C7.26 0 14.52 0 22 0 C22 2.64 22 5.28 22 8 C14.74 8 7.48 8 0 8 C0 5.36 0 2.72 0 0 Z " fill="#F6F6F6" transform="translate(136,155)"/>
<path d="M0 0 C7.26 0 14.52 0 22 0 C22 2.64 22 5.28 22 8 C14.74 8 7.48 8 0 8 C0 5.36 0 2.72 0 0 Z " fill="#F6F6F6" transform="translate(193,140)"/>
<path d="M0 0 C7.26 0 14.52 0 22 0 C22 2.64 22 5.28 22 8 C14.74 8 7.48 8 0 8 C0 5.36 0 2.72 0 0 Z " fill="#F6F6F6" transform="translate(136,140)"/>
<path d="M0 0 C6.93 0 13.86 0 21 0 C21 2.64 21 5.28 21 8 C14.07 8 7.14 8 0 8 C0 5.36 0 2.72 0 0 Z " fill="#F8F8F8" transform="translate(280,170)"/>
<path d="M0 0 C5.28 0 10.56 0 16 0 C15.01 2.97 14.02 5.94 13 9 C9.37 9 5.74 9 2 9 C1.34 6.03 0.68 3.06 0 0 Z " fill="#E3E3E3" transform="translate(315,200)"/>
<path d="M0 0 C6.27 0 12.54 0 19 0 C19 1.98 19 3.96 19 6 C12.4 6 5.8 6 -1 6 C-0.67 4.02 -0.34 2.04 0 0 Z " fill="#FEFEFE" transform="translate(346,156)"/>
<path d="M0 0 C5.94 0 11.88 0 18 0 C18.66 1.98 19.32 3.96 20 6 C16.85418577 6.02888514 13.70840531 6.04675923 10.5625 6.0625 C9.21575195 6.07506836 9.21575195 6.07506836 7.84179688 6.08789062 C6.56079102 6.09272461 6.56079102 6.09272461 5.25390625 6.09765625 C4.46314697 6.10289307 3.6723877 6.10812988 2.85766602 6.11352539 C1 6 1 6 0 5 C0 3.35 0 1.7 0 0 Z " fill="#FEFEFE" transform="translate(302,156)"/>
<path d="M0 0 C0 3.92477316 -1.17664876 4.65641968 -3.8125 7.5 C-4.62203125 8.37398438 -5.4315625 9.24796875 -6.265625 10.1484375 C-10.76751279 14.84326334 -15.36197547 19.43999831 -20 24 C-20.33 23.01 -20.66 22.02 -21 21 C-14.07 14.07 -7.14 7.14 0 0 Z " fill="#159F3A" transform="translate(335,336)"/>
<path d="M0 0 C1.65 0 3.3 0 5 0 C4.74438677 2.3431213 4.40729228 4.67843403 4 7 C3.01 7.495 3.01 7.495 2 8 C0.74335022 5.09399739 0 3.20395416 0 0 Z " fill="#E0E0E0" transform="translate(320,216)"/>
<path d="M0 0 C1.36125 0.12375 1.36125 0.12375 2.75 0.25 C1.9146875 0.62125 1.9146875 0.62125 1.0625 1 C-1.64971127 2.46606015 -3.88587365 4.27989471 -6.25 6.25 C-6.58 5.59 -6.91 4.93 -7.25 4.25 C-4.83923194 1.28290085 -3.90322061 0.30024774 0 0 Z " fill="#23A446" transform="translate(316.25,302.75)"/>
</svg>
